<svg id="Layer_1" data-name="Layer 1" xmlns="http://www.w3.org/2000/svg" viewBox="0 0 1680 595.67"><defs><style>.cls-1,.cls-2{fill:#ffb400;}.cls-2{fill-rule:evenodd;}.cls-3{fill:#32325d;}</style></defs><title>Primary</title><path class="cls-1" d="M1412.07,506.9l.85-20q33.51,1.43,67.56,3.09l-1,20Q1445.51,508.33,1412.07,506.9Zm-199.72-6.7.48-20q58.64,1.41,120.05,3.57l-.7,20Q1270.89,501.6,1212.35,500.2Zm-199.72-2.68,0-20q57.2.12,120.13,1.09l-.31,20Q1069.72,497.62,1012.63,497.52Zm-199.44,2.83-1-20,7.43-.37,2.95-.11,8.69-.29c9.57-.29,20.93-.58,34-.86q30.29-.63,67.3-1l.17,20q-36.86.33-67.05,1-19.54.4-33.83.85l-8.59.29-2.78.1C818,500.1,815.62,500.22,813.19,500.35ZM615.06,520.83,612,501.08c39.18-6.15,78.86-11.14,119.71-14.92l1.85,19.91C693.09,509.82,653.83,514.75,615.06,520.83ZM420.49,560.65l-4.69-19.44C461,530.31,495.68,522.49,533.33,515l3.88,19.62C499.88,542.05,465.43,549.81,420.49,560.65ZM220.68,595.29l1.21-20c28.37,1.72,62-3.07,115.87-15.4l4.46,19.5C286.61,592.15,251.47,597.16,220.68,595.29ZM90,450h20c0,33.5,12.42,68.28,37.07,92.93q3.44,3.44,7,6.47l-13,15.18q-4.12-3.54-8.1-7.51C104.25,528.39,90,488.5,90,450Z"/><path class="cls-2" d="M1274.4,190.9A97.78,97.78,0,0,0,1316,200a99.77,99.77,0,1,0-98.2-80.9v.6l15.3,81.8c1.4,7.4,8.7,10.9,14,6.7ZM1316,140a40,40,0,1,1,40-40A40,40,0,0,1,1316,140Z"/><polygon class="cls-3" points="110 170 110 430 90 430 90 170 0 170 0 150 200 150 200 170 110 170"/><polygon class="cls-3" points="782.32 230 800 237.16 723.84 430 706.16 430 630 237.16 647.68 230 715 400.46 782.32 230"/><rect class="cls-3" x="1230" y="230" width="20" height="200"/><rect class="cls-3" x="1160" y="150" width="20" height="280"/><rect class="cls-3" x="1090" y="150" width="20" height="280"/><path class="cls-3" d="M270,254c13.29-16.28,33.25-24,60-24v20c-41.83,0-60,21.47-60,80V430H250V230h20Z"/><polygon class="cls-3" points="1300.27 249.97 1300.27 230 1441.33 230 1449.48 245.88 1328.04 410.04 1450 410.04 1450 430 1308.15 430 1300 414.13 1421.44 249.97 1300.27 249.97"/><path class="cls-3" d="M1578.87,440.82l-88.87-203,18.51-7.77L1590,416.15c12.88-29.69,27.4-66.42,42.72-107.41,6.83-18.3,13.39-36.28,19.46-53.26,3.88-10.85,7.09-20,8.75-24.76l19.08,6.33c-1.69,4.87-4.91,14-8.82,24.95-6.1,17.06-12.69,35.13-19.56,53.51-19.27,51.59-37.31,96.5-52.55,129.52-12.12,26.25-24.4,43.43-44.75,54-12.07,6.25-29.93,9.85-52.14,11l-.85,0-.72-19.71.7,0c19.38-1,34.61-4.06,43.59-8.7C1559.23,474.14,1569.1,461.08,1578.87,440.82Z"/><path class="cls-3" d="M550,269.94V230h20V430H550V389.55A99.55,99.55,0,0,1,470,430c-54.8,0-99.81-45.23-100-100a99.65,99.65,0,0,1,120.41-97.85A100.92,100.92,0,0,1,550,269.94ZM470,411c50.64,0,89.57-47.15,79.28-97.8-6.29-30.89-31.46-55.82-62.74-62.32A80.6,80.6,0,0,0,389.05,330C389.2,374.25,425.73,411,470,411Z"/><path class="cls-3" d="M940.06,411a80.41,80.41,0,0,0,55.28-22.15l13.08,13.86A99.45,99.45,0,0,1,940.06,430c-54.84,0-99.88-45.23-100.06-100-.21-63,57.37-110.95,120.49-97.86,38.71,8,69.76,38.76,77.56,77.17a99.69,99.69,0,0,1,2,15.44l-9.52,10H859.22C861.87,376.86,897.37,411,940.06,411Zm79.8-95.24c-.14-.86-.31-1.72-.48-2.57-6.28-30.9-31.47-55.83-62.77-62.32a80.68,80.68,0,0,0-96.36,64.89Z"/></svg>